<svg width="22" height="22" viewBox="0 0 22 22" fill="none" xmlns="http://www.w3.org/2000/svg"><path d="M22 12.58c0-2.37-.3-4.75-.3-7.03 0-.8-.1-1.48-.2-2.28-.1-.3-.1-.69-.2-1.09-.3-.2-.2-.59-.5-.79-.41-.2-1.22-.1-1.72-.2-.7 0-1.3-.1-1.91-.2-1.91-.1-4.03-.1-6.04-.1S7.1.8 5.39.5H3.18c-.1 0-.1.1-.2.1-.6 0-1.11.2-1.61.3-.2.1-.4.2-.7.3-.1.2-.51.1-.61.39-.2.2.2.5 0 .6v.89c.2.1 0 .59.1.79v.99c0 1.29.1 2.38.1 3.66.5 2.78.4 6.44.1 9.31.2.6.4 1.1.5 1.69.3.5.3 1.09.7 1.48.51.2 1.22.2 1.92.2.4.1.7.3 1.1.3 2.83-.2 5.54-.2 8.46-.2 2.72.2 5.84.2 8.36-.2.2-.1.1-.5.2-.79-.1-.4.2-.4.2-.8.2-2.07.2-4.45.2-6.93zM8.92 6.44c.8-.2 1.5-.3 2.41-.3.7.1 1.3.3 1.91.5.1.2-.2.5.2.7.1 0 .1 0 .2.1.4 0 .81.2 1.11.39.5.1.5.5 1.11.4-.1.2-.1.5-.1.79.3 1.19.5 2.77.3 4.26-.2.2-.2.4-.3.7-.3.29-.5.78-.8 1.08-.1.2-.3.4-.5.5-.11.2-.21.5-.51.5-.3.19-.6 0-.8-.1-.41.2-.91.29-1.22.59l-2.41-.3c-.2-.1-.5-.3-.8-.3-.2-.2-.5-.4-.81-.5-.1-.1-.3-.1-.5-.2-.2 0-.2-.19-.5-.19-.1-.4-.41-.6-.51-1.09-.2-.3-.3-.8-.5-1.19 0-1.38.1-2.67.4-3.76.3-.6.8-1.1 1.1-1.69.2 0 .4-.1.4-.3.31.1.41-.1.71-.1.2 0 .2-.29.4-.49zM7.2 3.77c-.1-.3-.1-.7-.1-1.1 0-.29.3-.29.3-.49 0-.1-.1-.1-.2-.1.1-.1.7-.1.81 0 .1.5-.4.5-.5.7 0 .2.3 0 .5.1 0 .89-.1 1.48 0 2.18h-.5c0 .2.2.2.5.2-.1.3.1.4.1.59-.2.2-.7 0-1.1.1 0-.6.3-1.39.2-2.18zm-.7-1.59c.1 0 .1 0 .2.1.2.3 0 .7-.1.9-.2-.2 0-.7-.1-1zm.2 1.79c-.1-.1-.2-.2-.2-.5.2.1.2.3.2.5zm0 1.38c-.1.1-.1 0-.1-.2.1-.1.1.1.1.2zm-.2.2c.2 0 .1.2.2.2 0 .2-.3.2-.4.1.1-.1.2-.2.2-.3zM4.18 4.36c0-.1 0-.2-.1-.2-.1-.69.1-1.38 0-1.98.3-.2.8 0 1.11-.1v1.1c-.1.1-.2.1-.4.1-.1.3.3.1.4.3 0 .88-.1 1.77.2 2.37-.6-.1-.9.1-1.4.1.1-.6 0-1.39.5-1.59 0-.1-.3 0-.3-.1zm-.5 0c-.2 0-.2-.5-.1-.6.3 0 .2.5.1.6zm-.2 1c.1-.3 0-.3.1-.7.2 0 .2.8-.1.7zm.2-2.09c-.3.1-.3-.3-.2-.4.3 0 .4.3.2.4zm0-1.09c0 .2-.1.2-.1.3-.2 0-.1-.2-.2-.2.1-.1.2-.1.3-.1zm-.2 3.67c.1 0 .1.3-.1.2.1 0 .1-.1.1-.2zm-.7-3.67c0 .3-.4.3-.4 0h.4zm-1.01.1c0 .2-.3.2-.4.4-.2-.2.1-.5.4-.4zm-.4.7c.2-.2.5-.4.7-.6 0-.1.1-.1.1-.2h.2c.1.4-.3.3-.3.5 0 .1-.1.1-.1.2 0 .3.1.6.1.99-.3 0-.3.3-.6.2 0-.4-.2-.6-.1-1.1zm.1 3.27V4.66c.2-.2.4-.4.6-.5.3.5.2 1.4.5 1.89-.4.1-.8.1-1.1.2zm18.32 11c-.1.98-.2 1.97-.4 2.76-2.93.1-6.05 0-8.96.2-.2 0-.3 0-.2-.2-.3 0-.3.2-.5.2.2-.3.4-.89.2-1.29-.81 0-.81.8-1.12 1.3-.7-.1-1.1.1-1.8.1.2-.7.7-1 .9-1.7-.4-.49-1 .1-1.2.5-.21.5-.61.8-.81 1.29H4.89c.2-.5.5-.9.8-1.39.2-.5.6-.69.7-1.38-.2-.3-.4 0-.7 0-.1.2-.3.3-.4.5-.2.39-.5.69-.7 1.08-.2.2-.3 0-.5.2-.4.3-.61.7-1.01.99-.2-.1 0-.4.2-.4 0-.2-.1-.5.1-.59.1-.4.2-.6.4-.9.1-.69.5-1.18.7-1.87-.6.1-.7.6-1 .99-.2.4-.5.79-.7 1.28-.2-.1 0-.59-.1-.79.1-.6.3-1.09.4-1.68.1-.2.2-.5.2-.8.2-.2 0-.59-.1-.79-.2 0-.4.1-.5.3-.2 0-.2.5-.3.3 0-2.58-.51-4.76-.51-7.33 0-.3-.2-.4-.2-.7 1.6 0 3.12.1 4.83.2-.1.1-.2.3-.3.4-.1.1-.2.2-.4.3-.6 1.68-1.01 3.96-.6 6.14.2.6.6.99 1 1.38.9.5 1.6 1.1 2.51 1.69 1.72.4 3.83.4 5.54 0 .2-.1.5-.2.7-.4 1.41-1.19 2.82-2.47 3.02-4.85V10.9c-.2-1.58-.7-2.87-1.7-3.57.3-.2 1.1 0 1.7.1h.7c.41 0 .91-.1 1.42 0 .1.2.1.5.2.8-.1 1.68-.2 3.27-.2 5.05.1.5.1.99.2 1.39-.2.79-.3 1.68-.5 2.57zm.4-11.1c-.6-.1-1.21-.3-1.91-.4.1-.3.8 0 1-.2.4-.2.3-.89.3-1.48 0-.3.1-.6.1-1.1-.4-.98-1.8-.39-2.91-.49-.2.7-.5 1.78-.3 2.68.2.5 1 .3 1.5.5-.1.29-.7.09-1 .09-.3-.1-.7-.1-1-.2-2.32.1-4.34 0-6.55.2.1-1.19.1-2.48-.1-3.57h3.12c-.3.4-.9.5-1.31.8-.4.2-.9.5-1.1.89.2.1.5-.2.8-.4.4-.1.5-.4.8-.5.4-.39 1.11-.59 1.71-.89.4 0 .7 0 1.01.1 1.3 0 2.52.1 3.83.1.6.1 1.5.1 2 .3l.31.9c-.1.98-.3 1.77-.3 2.67zm-5.94-3.67c.1-.1 0-.1 0 0zm0 0c-.5.2-1 .3-1.4.7.5-.2 1.1-.3 1.4-.7zm1.1.6c.1-.1 0-.1 0 0zm-1.8.89c.7-.2 1.2-.6 1.7-.9-.4 0-.6.3-1 .4-.1.2-.5.2-.7.5zm-.7-.8c-.11 0 .1.1 0 0zm-.61.6c.1-.1 0-.1 0 0zm-.1.1c.1 0 .1-.1 0 0 0-.1 0-.1 0 0zm-.1 0c.1 0 .1 0 0 0 0-.1 0 0 0 0zm-.81.6c.3-.1.6-.3.8-.6-.3.2-.6.4-.8.6zm2.32.98c.5 0 .7-.4 1.2-.5.3-.29.8-.39 1.01-.78-.6 0-.8.4-1.2.49-.31.4-.81.5-1.01.8zm-2.32-.99c-.3 0 0 .3 0 0zm-.6.4c.1 0 .2 0 0 0 .1-.1 0 0 0 0zm2.92.6c-.2.1 0 .1 0 0zm-1.21 1.78c-.2-.2-.7-.2-1-.4-.71 0-1.22.1-1.72.2-.3.2-.6.3-.9.5-.3.2-.4.39-.81.49-.2.2-.4.5-.7.6 0 .2-.2.29-.3.39-.1.1-.1.3-.2.4 0 .1 0 .3-.11.3a18 18 0 00.7 4.15c.3.6 1.01.8 1.41 1.29.6.3 1.31.4 2.12.5.3-.1.6-.1.9-.1 1.21-.2 2.12-.7 2.82-1.39.1-.3.3-.5.5-.7-.3-.69.3-1.08.5-1.58 0-1.29-.2-2.47-.6-3.37-.3-.6-.9-.79-1.4-1.09-.1 0-.2 0-.2-.1-.2-.1-.71-.2-1.01-.1zm-3.42 4.35c-.1-.1-.1-.2-.2-.4.3-.1.2.2.2.4zm.1.3c0-.1.1 0 0 0 0 .2 0 .1 0 0zm.4-2.08c0-.1.1 0 0 0 .1.1 0 .1 0 0zm1.71-2.08c-.2.3 0 .6.1.8-.3 0-.6-.8-.1-.8zm.4 3.86c-.1 0 0 0 0 0 .1 0 0 .1 0 0zm.7 2.88c0-.1.1 0 .2 0 0 .1-.2.1-.2 0zm2.22-2.48c-.2-.1-.1.2-.4.2.1-.2.1-.3.2-.5.2 0 .3.1.2.3zm-1.1-3.76c.2.1.4.2.6.4.1.2.2.39.4.49.1.79.2 1.48.2 2.38-.3.1-.4.3-.7.4-.8 0-1.41-.2-1.92-.5-.2-.3-.4-.5-.5-.8V9.51c.2-.2.3-.4.5-.59.2-.1.5-.2.5-.6 0-.1-.1-.1-.1-.2.2 0 .2.2.41.2.2 0 .3-.2.6-.1z" fill="#231F20"/></svg>
