<svg width="1050" height="34" viewBox="0 0 1050 34" fill="none" xmlns="http://www.w3.org/2000/svg">
<path d="M1023.8 0C1010.65 0 1010.65 14 997.591 14C984.535 14 984.444 0 971.387 0C958.33 0 958.239 14 945.183 14C932.035 14 932.035 0 918.887 0C905.739 0 905.739 14 892.683 14C879.535 14 879.535 0 866.478 0C853.33 0 853.33 14 840.274 14C827.217 14 826.852 0 813.796 0C800.648 0 800.648 14 787.591 14C774.535 14 774.352 0 761.296 0C748.148 0 748.148 14 735.091 14C721.943 14 721.943 0 708.796 0C695.648 0 695.648 14 682.591 14C669.443 14 669.444 0 656.387 0C643.33 0 643.148 14 630 14C616.852 14 616.852 0 603.796 0C590.648 0 590.648 14 577.591 14C564.443 14 564.443 0 551.296 0C538.148 0 538.148 14 525.091 14C511.943 14 511.944 0 498.887 0C485.739 0 485.739 14 472.683 14C459.535 14 459.535 0 446.478 0C433.33 0 433.33 14 420.183 14C407.035 14 407.035 0 393.887 0C380.739 0 380.739 14 367.591 14C354.443 14 354.443 0 341.296 0C328.148 0 328.148 14 315 14C301.852 14 301.852 0 288.704 0C275.557 0 275.557 14 262.409 14C249.261 14 249.261 0 236.113 0C222.965 0 222.965 14 209.909 14C196.761 14 196.761 0 183.613 0C170.465 0 170.465 14 157.317 14C144.17 14 144.17 0 131.022 0C117.874 0 117.874 14 104.726 14C91.5783 14 91.5783 0 78.4304 0C65.6478 0 65.6478 14 52.5 14C39.3522 14 39.3522 0 26.2957 0C13.2391 0 13.1478 14 0 14V34H1050V14C1036.85 14 1036.85 0 1023.8 0Z" fill="white"/>
</svg>
